<?xml version="1.0" encoding="UTF-8"?> <svg xmlns="http://www.w3.org/2000/svg" xmlns:xlink="http://www.w3.org/1999/xlink" xmlns:svgjs="http://svgjs.com/svgjs" version="1.1" width="1000" height="1000"><g transform="matrix(1.0416666666666667,0,0,1.0416666666666667,0.016874313354435344,0.045411586761417766)"><svg xmlns="http://www.w3.org/2000/svg" xmlns:xlink="http://www.w3.org/1999/xlink" xmlns:svgjs="http://svgjs.com/svgjs" version="1.1" width="960" height="960"><svg xmlns="http://www.w3.org/2000/svg" xmlns:xlink="http://www.w3.org/1999/xlink" version="1.1" id="Layer_1" x="0px" y="0px" viewBox="0 0 960 960" style="enable-background:new 0 0 960 960;" xml:space="preserve"> <style type="text/css"> .st0{fill:#693D13;} .st1{fill:#351518;} .st2{fill:#FFFBE2;} .st3{fill:#E20E18;} </style> <path class="st0" d="M179.65,196.67c-0.02,0.01-0.05,0.01-0.07,0.02l-0.05,0.05h0.06C179.63,196.7,179.65,196.67,179.65,196.67"></path> <path class="st1" d="M559.85,534.01c-38.87-0.76-64.15-27.2-63.34-65.9c1.09-54.05,38.61-98.22,92.67-97.09 c41.02,0.79,64.03,30.13,63.35,65.94c-1.17,56.99-40.21,98.1-92.39,97.05H559.85z M566.41,498.94 c24.26,0.49,38.98-36.06,39.49-62.56c0.3-14.8-5.61-29.9-23.27-30.26c-25.81-0.53-39.64,37.62-40.16,61.94 c-0.33,18.27,8.42,30.6,23.6,30.88H566.41z"></path> <polygon class="st1" points="521.15,280.79 566.74,357.64 640.57,359.11 "></polygon> <path class="st1" d="M394.4,443.74l40.79,0.8l9.4-14.37l-13.03,58.46c-5.34,2.07-12.49,3.44-23.1,3.21 c-32.92-0.63-53.37-18.79-52.67-53.86c0.6-28.56,13.18-53.12,31.77-67.07c14.27-10.63,32.7-16.18,53.5-15.72l111.41,2.19 l-23.13-38.98l-85.06-1.68c-36.34-0.68-69.17,9.46-93.16,28.58c-27.17,22.16-43.68,55.67-44.48,94.84 c-0.49,26.66,8.65,50.16,25.11,65.13c16.79,15.86,40.55,23.79,69.13,24.39c26.43,0.49,52.03-5.53,67.98-10.46l23.25-109.23 l-89.88-1.81L394.4,443.74z"></path> <polygon class="st2" points="479.6,72.65 492.45,98.7 521.2,102.88 500.4,123.15 505.31,151.78 479.6,138.27 453.88,151.78 458.79,123.15 437.99,102.88 466.74,98.7 "></polygon> <path class="st1" d="M689.97,744.24c0,0-3.95,3.75,1.18,3.75c0,0,7.41,0.47,23.51-9.09c0,0,36.15-19.36,30.22-34.77 c0,0-2.17-12.84-32.2-5.73c0,0-37.53,9.87-60.05,41.28c0,0-41.28,40.5-72.5,38.92c0,0-15.41,0.2-8.1-21.14 c0,0,7.7-21.73,41.49-50.97c0,0,6.12-5.92,12.25-4.55c0,0,7.31-0.2,2.17,13.24c0,0-13.23,23.11-33.38,28.25c0,0-3.56,1.38-2.57,4.15 c0,0,4.26,1.44,13.63-2.96c0,0,42.87-16.99,42.47-37.34c0,0,1.38-17.78-30.62-9.68c0,0-64.4,16.59-74.47,71.12 c0,0-2.96,16.39,20.55,19.16c0,0,34.37,1.78,79.21-33.39c0,0-11.65,33.39,22.52,32.99c0,0,48.4-0.59,93.84-50.37 c0,0,4.15-5.53-0.2-4.15c0,0-3.95,1.58-9.08,7.11c0,0-55.52,49.58-80.01,36.15c0,0-6.52-4.34-1.38-17.19c0,0,10.27-24.5,33.78-45.63 c0,0,14.03-13.43,21.93-11.26c0,0,8.1,0.59-1.78,17.38c0,0-9.28,16-28.25,22.92C694.12,742.46,691.95,743.45,689.97,744.24"></path> <path class="st1" d="M802.57,633.42c-22.12-26.47-48.2-5.73-48.2-5.73c-22.19,18.24-19.75,23.9-19.75,23.9 c2.17-0.92,4.68-4.61,4.68-4.61c48.01-54.66,66.9,6.32,66.9,6.32C826.48,705.98,768,767.88,768,767.88 c-67.96,74.81-197.55,82.71-197.55,82.71c-80.86,6.58-141.7-9.22-141.7-9.22c68.48-50.57,130.38-136.7,130.38-136.7 c75.33-13.96,108.78-51.62,108.78-51.62c8.89-8.03,3.95-6.06,3.95-6.06c-57.95,41.88-101.67,43.98-101.67,43.98 c2.64-4.21,6.59-8.17,6.59-8.17c114.18-55.91,108.81-106.56,108.81-106.56c-0.79-12.38-17.14-5.12-17.14-5.12 C626.3,593.51,548.86,691.5,548.86,691.5c-22.91,1.84-48.46-1.05-48.46-1.05c1.05-2.63,6.32-7.38,6.32-7.38 c54.52-20.28,99.83-81.65,99.83-81.65c14.3-16.85,6.32-28.71,6.32-28.71c-11.33-13.96-57.42,33.19-57.42,33.19 c-34.77,33.98-75.86,84.55-75.86,84.55c-66.12-2.63-120.11,21.86-120.11,21.86c-55.31,25.81-54.79,60.32-54.79,60.32 c2.37,27.66,32.66,23.44,32.66,23.44c54.79-7.37,72.17-50.84,72.17-50.84c6.85-24.49-9.48-29.24-9.48-29.24 c-3.17-0.5-1.05,10.27-1.05,10.27c2.9,30.55-53.47,60.84-53.47,60.84c-7.23,4.32-14.48,2.9-14.48,2.9 c-6.85-2.63-3.43-12.64-3.43-12.64c13.17-44.51,70.86-67.17,70.86-67.17c33.72-11.59,67.69-3.69,67.69-3.69 C421.37,767.62,359.08,828,359.08,828c-77.43-17.58-127.81-17.58-127.81-17.58c-142.63-2.49-132.36,61.04-132.36,61.04 c8.89,55.71,124.85,46.62,124.85,46.62c117.94-2.17,198.14-71.71,198.14-71.71c130.18,22.32,227.18-2.17,227.18-2.17 C789.93,811.41,817,718.36,817,718.36C833.59,663.44,802.57,633.42,802.57,633.42 M673.97,581.4c0,0,9.69-5.56,3.69,7.38 c0,0-29.76,56.63-94.56,85.08C583.1,673.85,628.93,611.42,673.97,581.4 M596.8,585.08c0,0,16.48-11.15,11.59,0.79 c0,0-30.74,57.49-95.88,88.5C512.51,674.38,556.76,614.58,596.8,585.08 M200.25,913.14c0,0-91.67-4.74-82.18-49.39 c0,0,1.58-46.23,98.77-44.25c0,0,54.52-1.58,131.96,16.2c0,0-50.97,50.18-120.5,47.81c0,0-25.29,0.99-35.95-11.46 c0,0-4.34-5.53,1.58-7.11c0,0,11.46-1.78,6.72-11.85c0,0-8.96-10.93-17.19,2.96c0,0-4.74,9.88,3.75,19.36 c0,0,14.62,20.55,66.77,11.86c0,0,61.04-9.88,109.05-49.59c0,0,21.89,3.31,46.62,7.11C409.66,844.79,330.24,917.88,200.25,913.14 M415.98,840.05c0,0-36.35-8.3-42.67-9.09c0,0,66.38-61.24,113-124.06c0,0,24.36,3.03,48.6,0.4 C534.9,707.3,516.33,744.44,415.98,840.05"></path> <path class="st1" d="M471.29,583.83c-28.45-2.77-36.75,21.93-36.75,21.93c-3.56,13.04,6.91,16.79,6.91,16.79 c12.64,2.96,12.25-7.7,12.25-7.7c0.2-6.32-10.27-5.53-10.27-5.53c-3.95-2.37-2.17-7.11-2.17-7.11 c5.14-14.03,21.47-14.22,21.47-14.22c26.87,1.58,27.39,27.65,27.39,27.65c0.53,44.78-46.09,49.79-46.09,49.79 c-41.62,4.48-85.87-20.02-85.87-20.02c9.22-16.07-1.84-31.08-1.84-31.08c-14.22-17.91-64.01,1.58-64.01,1.58 c-37.67-14.98-68.6-15.01-68.6-15.01c-96.04-1.39-88.12,60.32-88.12,60.32c2.64,30.81,40.04,42.53,40.04,42.53 c-18.18,27.79-16.6,47.81-16.6,47.81c2.11,50.31,62.56,43.72,62.56,43.72c69.53-4.74,71.9-52.02,71.9-52.02 c1.05-25.55-31.74-23.18-31.74-23.18c-50.05,4.81-51.23,38.98-51.23,38.98c0.51,13.83,14.75,13.43,14.75,13.43 c14.88,1.05,20.68-11.46,20.68-11.46c0.79-3.29-2.04,0.2-2.04,0.2c-5.73,8.1-16.39,8.1-16.39,8.1c-17.98-1.58-11.46-16-11.46-16 c8.89-25.88,42.27-30.42,42.27-30.42c27.53-1.91,24.3,17.39,24.3,17.39c-2.37,43.66-54.72,49.39-54.72,49.39 c-34.77,1.97-41.09-18.17-41.09-18.17c-10.27-32.4,12.64-62.62,12.64-62.62c98.77,11.06,152.31-54.92,152.31-54.92 c44.55,24.06,91.27,16.4,91.27,16.4c55.71-8.1,55.91-52.94,55.91-52.94C499.32,587.42,471.29,583.83,471.29,583.83 M177.54,699.99 c-50.58-23.31-25.09-60.45-25.09-60.45c36.93-58.74,132.75-19.95,132.75-19.95C215.86,646.06,177.54,699.99,177.54,699.99 M201.64,705.32c0,0,16-38.92,88.7-82.97c0,0,32.59,11.86,50.17,25.29C340.51,647.64,304.56,715.6,201.64,705.32 M345.06,638.95 c-5.73-3.75-43.66-20.74-43.66-20.74C355.44,597.61,345.06,638.95,345.06,638.95"></path> <path class="st3" d="M129.39,611.53c19.38-21.88,51.15-33.3,94.42-33.96c0.38-0.01,1.03-0.02,1.8-0.02 c-20.15-39.21-30.85-83.15-30.85-127.31c0-155.34,127.72-281.71,284.7-281.71c156.99,0,284.71,126.37,284.71,281.71 c0,62.86-21.41,123.82-60.44,173.22c6.75,1.06,11.88,2.46,15.79,3.89c6.32-8.05,14.26-14.62,19.22-18.69 c18.24-14.51,54.76-23.89,82.25,8.37c1.98,2.13,5.91,6.73,10.11,13.65c29.01-55.25,44.35-117.43,44.35-180.44 c0-104.66-41.19-203.05-115.98-277.05C685.01,99.52,586.12,58.83,480.89,58.46l16.91,33.91l41.03,5.89l-29.69,28.64l7.01,40.44 l-36.7-19.1l-36.7,19.1l7.01-40.44l-29.69-28.64l41.03-5.89l16.91-33.91c-105.23,0.37-204.11,41.06-278.56,114.73 c-74.79,74-115.98,172.4-115.98,277.05c0,59.06,13.51,117.62,39.14,170.21C124.55,617.47,126.78,614.48,129.39,611.53"></path> <path class="st1" d="M117.07,630.74c-27.22-54.99-41.66-115.91-41.66-179.06c0-107.96,42.04-209.46,118.38-285.8 C270.13,89.54,371.63,47.5,479.6,47.5c107.96,0,209.46,42.04,285.8,118.38c76.34,76.34,118.38,177.84,118.38,285.8 c0,67.21-16.36,131.89-47.09,189.58c1.41,3.08,2.77,6.43,3.99,10.04c33.51-60.41,51.4-128.63,51.4-199.62 c0-110.18-42.91-213.76-120.82-291.67C693.36,82.1,589.77,39.19,479.6,39.19c-110.18,0-213.77,42.91-291.68,120.81 C110.01,237.92,67.11,341.5,67.11,451.68c0,67.22,16.01,131.97,46.15,189.94C114.16,638.19,115.4,634.53,117.07,630.74"></path> <path class="st2" d="M165.88,460.11l-4.47,4.9c2.07,2.89,3.2,6.42,3.39,10.59c0.28,6.03-1.59,10.74-5.14,14.63 c-5.12,5.61-11.74,5.76-20.9,6.18c-9.16,0.42-15.77,0.88-21.38-4.24c-3.89-3.55-6.19-8.07-6.47-14.1 c-0.28-6.03,1.6-10.67,5.15-14.56c5.12-5.61,11.74-5.84,20.9-6.26c7.96-0.37,13.84-0.71,18.91,2.41l4.33-4.75L165.88,460.11z M122.66,470.9c-1.64,1.57-2.65,3.93-2.52,6.76c0.13,2.83,1.35,5.16,3.14,6.57c2.33,1.91,4.81,2.32,15,1.85 c10.2-0.47,12.63-1.11,14.77-3.22c1.64-1.57,2.65-4,2.52-6.83c-0.06-1.27-0.41-2.44-1.13-3.38l-4.33,4.82l-5.69-5.26l3.76-4.13 c-2.34-0.71-5.4-0.72-10.76-0.48C127.23,468.08,124.8,468.79,122.66,470.9"></path> <path class="st2" d="M168.71,408.11c-1.76,10.74-10.44,18.07-21.54,16.25l-34.41-5.65l1.68-10.22l34.05,5.59 c6.03,0.99,10.21-1.95,11.12-7.46c0.91-5.52-2.11-9.71-8.14-10.7l-34.05-5.58l1.66-10.15l34.42,5.65 C164.59,387.65,170.47,397.37,168.71,408.11"></path> <path class="st2" d="M190.74,331.27l-9.88-0.51l-6.88,17.55l7.57,6.41l-3.94,10.06l-42.35-37.33l2.96-7.56l56.47,1.32L190.74,331.27 z M151.4,329.14l15.52,13.29l4.81-12.28L151.4,329.14z"></path> <polygon class="st2" points="207.15,298.71 162.58,269.93 168.2,261.23 205.01,284.99 218.06,264.77 225.82,269.79 "></polygon> <rect x="222.39" y="200.08" transform="matrix(0.6704 -0.742 0.742 0.6704 -93.1388 243.53)" class="st2" width="10.36" height="53.05"></rect> <polygon class="st2" points="261.9,171.19 289.27,205.4 281.18,211.87 253.81,177.66 242.99,186.32 237.22,179.1 266.95,155.32 272.72,162.53 "></polygon> <polygon class="st2" points="331.29,153.22 341.4,172.48 332.29,177.26 322.18,157.99 293.52,137.69 303.49,132.46 322.2,146.79 320.9,123.32 330.87,118.09 "></polygon> <path class="st2" d="M620.39,176.29l-19.89-9.86l23.56-47.53l19.1,9.46c9.28,4.6,12.1,12.49,8.07,20.63 c-2.62,5.27-7.78,6.96-10.74,6.9c2.21,2.76,4.39,7.58,1.25,13.92C637.33,178.69,628.87,180.49,620.39,176.29 M629.35,155.86 l-9.68-4.8l-5.79,11.68l9.68,4.8c4.21,2.09,7.53,0.41,9.12-2.8C634.27,161.54,633.56,157.94,629.35,155.86 M638.32,136.27l-9.08-4.5 l-5.43,10.95l9.08,4.5c3.94,1.95,7.24,0.84,8.85-2.43C643.37,141.52,642.26,138.22,638.32,136.27"></path> <path class="st2" d="M683.52,218.31l3.37-9.3l-14.79-11.69l-8.34,5.38l-8.47-6.7l48.04-29.65l6.37,5.04L692,225.01L683.52,218.31z M697.01,181.3l-17.23,10.98l10.35,8.18L697.01,181.3z"></path> <path class="st2" d="M728.03,264.92l9.62-21.51l-4.77-5.72l-16.25,13.55l-6.63-7.96l40.75-33.98l13.31,15.97 c6.92,8.3,5.36,17.94-1.45,23.62c-5.72,4.77-12.18,4.24-16.9,1.48l-9.98,23.75L728.03,264.92z M756.53,230.68l-6.25-7.5l-10.76,8.97 l6.25,7.5c2.91,3.49,7.05,3.92,10.2,1.3C759.12,238.32,759.44,234.17,756.53,230.68"></path> <rect x="749.66" y="283.99" transform="matrix(0.8657 -0.5006 0.5006 0.8657 -40.499 427.3969)" class="st2" width="53.05" height="10.36"></rect> <path class="st2" d="M774.98,349.18c-2.84-7.53-3.38-13.85-0.27-20.6l8.64,3.92c-1.96,4.32-1.4,8.97,0.33,13.57 c2.15,5.72,5.47,7.97,9.44,6.48c1.74-0.66,3.02-1.7,3.61-3.11c0.54-1.32,0.61-2.62,0.09-5.05l-1.42-6.31 c-0.98-4.49-0.83-8.13,0.49-11.17c1.48-3.26,4.24-5.66,8.42-7.23c8.86-3.33,17.53,0.89,21.57,11.63c2.57,6.84,2.76,12.42,0.25,18.22 l-8.38-3.85c1.82-4.27,0.82-8.19-0.41-11.47c-1.94-5.16-5.75-6.59-9.16-5.31c-1.26,0.47-2.42,1.39-3.01,2.8 c-0.54,1.32-0.7,3.21-0.22,5.34l1.37,6.17c1.08,4.77,0.9,8.1-0.27,10.93c-1.51,3.59-4.69,6.14-9.09,7.79 C787.34,365.55,778.89,359.58,774.98,349.18"></path> <polygon class="st2" points="836.07,408.28 792.85,415.48 791.15,405.26 834.37,398.07 832.1,384.4 841.21,382.88 847.47,420.44 838.35,421.96 "></polygon> <path class="st2" d="M795.91,482.57l9.48-2.82l0.63-18.84l-9.28-3.52l0.36-10.8l52.39,21.05l-0.27,8.12l-53.67,17.59L795.91,482.57z M833.71,471.45l-19.06-7.34l-0.44,13.18L833.71,471.45z"></path> <path class="st1" d="M684.49,620.86c3.56,0.25,6.95,0.64,9.91,1.05c37.17-46.8,59.4-105.96,59.4-170.23 c0-151.2-123-274.2-274.2-274.2c-151.19,0-274.2,123.01-274.2,274.2c0,45.38,11.09,88.22,30.69,125.96h2.36 c1.36,0,2.68,0.17,3.93,0.49h0.02c1.22,0,2.41,0.14,3.56,0.41c-20.57-37.73-32.27-80.95-32.27-126.86 c0-146.62,119.28-265.9,265.9-265.9c146.62,0,265.9,119.28,265.9,265.9C745.49,515.91,722.54,574.85,684.49,620.86"></path> </svg></svg></g></svg> 